# xmcd
#
# Track frame offsets:
#	150
#	13872
#	28377
#	51512
#	63730
#	74507
#	89127
#	99062
#	111865
#	128160
#	144647
#	156827
#	171960
#	191057
#
# Disc length: 2736 seconds
#
# Revision: 1
# Processed by: cddbd v1.5.2PL0 Copyright (c) Steve Scherf et al.
# Submitted via: audiograbber 1.83.01
#
DISCID=d70aae0e
DTITLE=The Hitchin' Post - Death Valley Junction
DYEAR=1994
DGENRE=Country
TTITLE0=Today I'm Leaving Home
TTITLE1=Lonesome Fugitive
TTITLE2=Death Valley JCT.
TTITLE3=Jealousy
TTITLE4=Never Met a Girl Like You
TTITLE5=Lost Dutchman Mine
TTITLE6=Best Years
TTITLE7=Dark Dressed Cowgirl
TTITLE8=Tramps
TTITLE9=Honky Tonkin' (At the Hitchin' Post)
TTITLE10=Folsom Prison Blues
TTITLE11=Naomi
TTITLE12=No Snakes in Heaven
TTITLE13=Family Bible
EXTD=
EXTT0=
EXTT1=
EXTT2=
EXTT3=
EXTT4=
EXTT5=
EXTT6=
EXTT7=
EXTT8=
EXTT9=
EXTT10=
EXTT11=
EXTT12=
EXTT13=
PLAYORDER=
